<?xml version="1.0" encoding="UTF-8"?>
<svg id="Ebene_2" data-name="Ebene 2" xmlns="http://www.w3.org/2000/svg" viewBox="0 0 322.18 383.04">
  <defs>
    <style>
      .cls-1 {
        stroke-width: 0px;
      }
    </style>
  </defs>
  <g id="instagram_UI_icons_set" data-name="instagram UI icons set">
    <path class="cls-1" d="m27.86,383.04c-4.19,0-8.41-.96-12.36-2.9-9.56-4.72-15.5-14.27-15.5-24.94V18.53C0,8.31,8.31,0,18.53,0h285.11c10.22,0,18.53,8.31,18.53,18.53v334.78c0,10.81-6.06,20.43-15.81,25.09-9.76,4.67-21.03,3.36-29.43-3.42l-.82-.66-111.21-115.1h0s-119.36,117.42-119.36,117.42l-.83.63c-4.97,3.81-10.89,5.76-16.87,5.76Zm6.05-349.13v306.61l107.21-105.47,24.38-24.01,23.8,24.61,98.96,102.43V33.91H33.91Z"/>
  </g>
</svg>