<?xml version="1.0" encoding="UTF-8"?>
<svg id="Ebene_2" data-name="Ebene 2" xmlns="http://www.w3.org/2000/svg" viewBox="0 0 390.01 390.01">
  <defs>
    <style>
      .cls-1 {
        stroke-width: 0px;
      }
    </style>
  </defs>
  <g id="instagram_UI_icons_set" data-name="instagram UI icons set">
    <path class="cls-1" d="m290.26,345.45l5.36-16.08c-4.84-1.61-10.14-.97-14.45,1.76l9.09,14.31Zm55.19-55.18l-14.32-9.09c-2.73,4.31-3.38,9.61-1.77,14.45l16.09-5.36Zm27.6,82.78l-5.36,16.09c6.09,2.02,12.81.44,17.35-4.1,4.54-4.54,6.13-11.26,4.1-17.35l-16.09,5.36Zm-178.05,16.96c38.35,0,74.16-11.09,104.34-30.23l-18.17-28.64c-24.91,15.8-54.45,24.96-86.17,24.96v33.91ZM0,195c0,107.69,87.31,195,195,195v-33.91c-88.97,0-161.09-72.12-161.09-161.09H0ZM195,0C87.31,0,0,87.31,0,195h33.91c0-88.97,72.12-161.09,161.09-161.09V0Zm195,195C390.01,87.31,302.7,0,195,0v33.91c88.97,0,161.09,72.12,161.09,161.09h33.91Zm-30.24,104.34c19.15-30.18,30.24-66,30.24-104.34h-33.91c0,31.73-9.15,61.26-24.96,86.17l28.64,18.16Zm-30.41-3.71l27.6,82.78,32.17-10.72-27.6-82.8-32.17,10.73Zm49.05,61.33l-82.79-27.59-10.73,32.17,82.79,27.61,10.72-32.18Z"/>
  </g>
</svg>