<?xml version="1.0" encoding="UTF-8"?>
<svg id="Ebene_2" data-name="Ebene 2" xmlns="http://www.w3.org/2000/svg" viewBox="0 0 22 22">
  <defs>
    <style>
      .cls-1 {
        stroke-width: 0px;
      }
    </style>
  </defs>
  <g id="post">
    <g>
      <path class="cls-1" d="m11,22C4.93,22,0,17.07,0,11S4.93,0,11,0s11,4.93,11,11-4.93,11-11,11Zm0-20C6.04,2,2,6.04,2,11s4.04,9,9,9,9-4.04,9-9S15.96,2,11,2Z"/>
      <path class="cls-1" d="m15.95,6.05c-.27-.27-.66-.36-1.02-.24l-6.36,2.12c-.3.1-.53.33-.63.63l-2.12,6.36c-.12.36-.03.76.24,1.02.19.19.45.29.71.29.11,0,.21-.02.32-.05l6.36-2.12c.3-.1.53-.33.63-.63l2.12-6.36c.12-.36.03-.76-.24-1.02Zm-3.44,5.75l-2.31-2.31,3.46-1.15-1.15,3.46Z"/>
    </g>
  </g>
</svg>