<?xml version="1.0" encoding="UTF-8"?>
<svg id="Ebene_2" data-name="Ebene 2" xmlns="http://www.w3.org/2000/svg" viewBox="0 0 367.47 384.38">
  <defs>
    <style>
      .cls-1 {
        fill-rule: evenodd;
        stroke-width: 0px;
      }
    </style>
  </defs>
  <g id="instagram_UI_icons_set" data-name="instagram UI icons set">
    <path class="cls-1" d="m163.9,0C73.35,0,0,73.53,0,164.14s73.35,164.16,163.9,164.16c34.97,0,67.37-10.97,93.98-29.66l.14.14,73.47,73.61,11.99,11.99,23.99-23.96-11.99-11.99-71.95-72.08c27.45-29.35,44.26-68.81,44.26-112.2C327.79,73.53,254.44,0,163.9,0ZM33.91,164.14c0-71.95,58.23-130.23,129.99-130.23s129.97,58.28,129.97,130.23-58.21,130.25-129.97,130.25S33.91,236.11,33.91,164.14Z"/>
  </g>
</svg>