<?xml version="1.0" encoding="UTF-8"?>
<svg id="Ebene_2" data-name="Ebene 2" xmlns="http://www.w3.org/2000/svg" viewBox="0 0 403.54 361.24">
  <defs>
    <style>
      .cls-1 {
        stroke-width: 0px;
      }
    </style>
  </defs>
  <g id="instagram_UI_icons_set" data-name="instagram UI icons set">
    <path class="cls-1" d="m201.77,361.24c-12.22,0-24.43-4.42-34.17-13.25l-4.15-3.76C65.03,254.88,0,195.85,0,118.61,0,52.1,52.1,0,118.61,0c30.27,0,60.23,11.54,83.16,31.48C224.7,11.54,254.67,0,284.94,0c66.5,0,118.6,52.1,118.6,118.61,0,77.26-65.04,136.31-163.5,225.68l-.08.07-4.02,3.64c-9.74,8.83-21.96,13.24-34.17,13.24ZM118.61,33.91c-47.5,0-84.7,37.2-84.7,84.69,0,62.23,60.6,117.24,152.34,200.52l4.13,3.74c6.5,5.9,16.29,5.89,22.79,0h0s4.02-3.64,4.02-3.64c91.81-83.35,152.43-138.38,152.43-200.62,0-47.49-37.2-84.69-84.68-84.69-26.56,0-52.84,12.19-70.28,32.6l-12.89,15.08-12.89-15.08c-17.45-20.41-43.72-32.6-70.27-32.6Z"/>
  </g>
</svg>