<?xml version="1.0" encoding="UTF-8"?>
<svg id="Ebene_2" data-name="Ebene 2" xmlns="http://www.w3.org/2000/svg" viewBox="0 0 406.97 361.33">
  <defs>
    <style>
      .cls-1 {
        fill-rule: evenodd;
      }

      .cls-1, .cls-2 {
        fill: #ed4756;
        stroke-width: 0px;
      }
    </style>
  </defs>
  <g id="instagram_UI_icons_set" data-name="instagram UI icons set">
    <g>
      <path class="cls-1" d="m226.2,344.07c-12.91,11.65-32.54,11.65-45.44,0l-5.55-5.02C74.78,248.33,8.48,188.46,8.48,115.21,8.48,55.35,55.57,8.48,115.73,8.48c33.93,0,66.5,15.72,87.75,40.46,21.26-24.74,53.82-40.46,87.75-40.46,60.16,0,107.25,46.87,107.25,106.73,0,73.25-66.3,133.13-166.73,223.85l-5.55,5.02Z"/>
      <path class="cls-2" d="m203.48,361.33c-10.15,0-20.31-3.65-28.4-10.96l-5.56-5.02C67.41,253.1,0,192.21,0,115.21,0,50.6,50.83,0,115.73,0c32.49,0,64.63,13.5,87.75,36.5C226.6,13.5,258.75,0,291.23,0c64.9,0,115.73,50.6,115.73,115.21,0,77-67.41,137.9-169.45,230.08l-5.62,5.08s0,0,0,0c-8.1,7.31-18.25,10.96-28.4,10.96ZM115.73,16.96c-55.39,0-98.77,43.16-98.77,98.25,0,69.47,65.19,128.36,163.86,217.49l5.62,5.08c9.71,8.76,24.36,8.76,34.07,0l5.55-5.02c98.75-89.2,163.94-148.09,163.94-217.56,0-55.09-43.39-98.25-98.77-98.25-30.74,0-61.14,14.02-81.32,37.51-1.61,1.88-3.96,2.95-6.43,2.95s-4.82-1.08-6.43-2.95c-20.18-23.48-50.58-37.51-81.32-37.51Z"/>
    </g>
  </g>
</svg>