<?xml version="1.0" encoding="UTF-8"?>
<svg id="Ebene_2" data-name="Ebene 2" xmlns="http://www.w3.org/2000/svg" xmlns:xlink="http://www.w3.org/1999/xlink" viewBox="0 0 1619.04 1721.39">
  <defs>
    <style>
      .cls-1 {
        fill: url(#Dégradé_sans_nom_40);
      }

      .cls-1, .cls-2, .cls-3 {
        stroke-width: 0px;
      }

      .cls-2 {
        fill: url(#Dégradé_sans_nom_28);
        fill-rule: evenodd;
      }

      .cls-3 {
        fill: #fff;
      }
    </style>
    <linearGradient id="Dégradé_sans_nom_28" data-name="Dégradé sans nom 28" x1="286.61" y1="1332.42" x2="1419.14" y2="199.89" gradientUnits="userSpaceOnUse">
      <stop offset="0" stop-color="#ebaf4d"/>
      <stop offset=".48" stop-color="#de485d"/>
      <stop offset="1" stop-color="#aa34ad"/>
    </linearGradient>
    <linearGradient id="Dégradé_sans_nom_40" data-name="Dégradé sans nom 40" x1="566.56" y1="1682.73" x2="1052.47" y2="1402.19" gradientUnits="userSpaceOnUse">
      <stop offset="0" stop-color="#ebaf4d"/>
      <stop offset=".37" stop-color="#de485d"/>
      <stop offset=".78" stop-color="#aa34ad"/>
      <stop offset="1" stop-color="#6757c6"/>
    </linearGradient>
  </defs>
  <g id="instagram_UI_icons_set" data-name="instagram UI icons set">
    <g>
      <path class="cls-2" d="m809.52,0C362.42,0,0,362.42,0,809.52s362.42,809.52,809.52,809.52,809.52-362.42,809.52-809.52S1256.61,0,809.52,0Zm0,1531.53c-398.11,0-722-323.89-722-722S411.4,87.51,809.51,87.51s722,323.89,722,722.02-323.89,722-722,722Z"/>
      <path class="cls-3" d="m1515.09,511.43c-38.56-91.18-93.77-173.06-164.1-243.4-70.31-70.31-152.19-125.53-243.4-164.08-94.41-39.95-194.7-60.2-298.08-60.2s-203.64,20.25-298.08,60.2c-91.18,38.56-173.08,93.77-243.4,164.08-70.31,70.33-125.53,152.21-164.1,243.4-39.92,94.43-60.17,194.73-60.17,298.1s20.25,203.64,60.17,298.08c38.58,91.18,93.79,173.06,164.1,243.4,70.31,70.31,152.21,125.53,243.4,164.1,94.43,39.92,194.7,60.18,298.08,60.18s203.66-20.25,298.08-60.18c91.2-38.58,173.08-93.79,243.4-164.1,70.33-70.33,125.55-152.21,164.1-243.4,39.95-94.43,60.2-194.73,60.2-298.08s-20.25-203.66-60.2-298.1Zm-705.57,1020.1c-398.11,0-722-323.89-722-722S411.4,87.51,809.51,87.51s722,323.89,722,722.02-323.89,722-722,722Z"/>
      <path class="cls-1" d="m595.94,1400.25h427.16c27.02,0,48.96,21.94,48.96,48.96v186.49c0,27.02-21.94,48.96-48.96,48.96h-427.16c-27.02,0-48.96-21.94-48.96-48.96v-186.5c0-27.02,21.94-48.96,48.96-48.96Z"/>
      <path class="cls-3" d="m1023.1,1363.53h-427.16c-47.25,0-85.69,38.44-85.69,85.68v186.49c0,47.25,38.44,85.68,85.69,85.68h427.16c47.25,0,85.68-38.44,85.68-85.68v-186.49c0-47.25-38.44-85.68-85.68-85.68Zm48.96,272.18c0,27-21.96,48.96-48.96,48.96h-427.16c-27,0-48.96-21.96-48.96-48.96v-186.49c0-27,21.96-48.96,48.96-48.96h427.16c27,0,48.96,21.96,48.96,48.96v186.49Z"/>
      <path class="cls-3" d="m617.64,1597.16h79.75v-21.29h-53.93v-102.04h-25.82v123.33Zm105.98,0h25.82v-123.33h-25.82v123.33Zm90.69,0h31.44l41.29-123.33h-28.64l-28.11,96.92h-.5l-28.2-96.92h-28.55l41.29,123.33Zm96.31,0h81.7v-21.29h-55.88v-31.02h52.73v-20.15h-52.73v-29.58h55.88v-21.29h-81.7v123.33Z"/>
    </g>
  </g>
</svg>