<?xml version="1.0" encoding="UTF-8"?>
<svg id="Ebene_2" data-name="Ebene 2" xmlns="http://www.w3.org/2000/svg" viewBox="0 0 424.11 375.7">
  <defs>
    <style>
      .cls-1 {
        stroke-width: 0px;
      }
    </style>
  </defs>
  <g id="instagram_UI_icons_set" data-name="instagram UI icons set">
    <path class="cls-1" d="m214.3,375.7c-1.08,0-2.16-.1-3.25-.31-7.15-1.39-12.61-7.19-13.57-14.41l-27.2-204.68L6.62,30.4C.85,25.96-1.44,18.33.92,11.44S9.82-.04,17.07,0l389.88,2.57c.07,0,.15,0,.22,0,1.46,0,2.93.19,4.38.58,1.44.39,2.81.96,4.07,1.69,1.28.73,2.47,1.64,3.53,2.71,1.06,1.06,1.96,2.24,2.69,3.51.74,1.27,1.31,2.65,1.7,4.11.38,1.43.57,2.88.57,4.32,0,1.48-.18,2.98-.58,4.45-.39,1.45-.96,2.82-1.7,4.09-.03.06-.06.11-.1.17l-192.7,338.93c-3.05,5.37-8.72,8.58-14.74,8.58Zm-9.82-219.57l19.99,150.41,137.08-241.1-157.07,90.68ZM67.25,34.25l120.27,92.51,157.07-90.68-277.34-1.83Z"/>
  </g>
</svg>