<?xml version="1.0" encoding="UTF-8"?>
<svg id="Ebene_2" data-name="Ebene 2" xmlns="http://www.w3.org/2000/svg" viewBox="0 0 383.51 320.42">
  <defs>
    <style>
      .cls-1 {
        stroke-width: 0px;
      }
    </style>
  </defs>
  <g id="instagram_UI_icons_set" data-name="instagram UI icons set">
    <g>
      <path class="cls-1" d="m16.02,29.54h351.47c7.46,0,13.52-6.13,13.52-13.52s-6.05-13.52-13.52-13.52H16.02c-7.46,0-13.52,6.13-13.52,13.52s6.05,13.52,13.52,13.52Zm351.47,117.16H16.02c-7.46,0-13.52,6.13-13.52,13.52s6.05,13.52,13.52,13.52h351.47c7.46,0,13.52-6.13,13.52-13.52s-6.05-13.52-13.52-13.52Zm0,144.19H16.02c-7.46,0-13.52,6.13-13.52,13.52s6.05,13.52,13.52,13.52h351.47c7.46,0,13.52-6.13,13.52-13.52s-6.05-13.52-13.52-13.52Z"/>
      <path class="cls-1" d="m367.49,320.42H16.02c-8.83,0-16.02-7.19-16.02-16.02s7.19-16.02,16.02-16.02h351.47c8.83,0,16.02,7.19,16.02,16.02s-7.19,16.02-16.02,16.02Zm-351.47-27.04c-6.08,0-11.02,4.94-11.02,11.02s4.94,11.02,11.02,11.02h351.47c6.08,0,11.02-4.94,11.02-11.02s-4.94-11.02-11.02-11.02H16.02Zm351.47-117.16H16.02c-8.83,0-16.02-7.19-16.02-16.02s7.19-16.02,16.02-16.02h351.47c8.83,0,16.02,7.19,16.02,16.02s-7.19,16.02-16.02,16.02ZM16.02,149.19c-6.08,0-11.02,4.94-11.02,11.02s4.94,11.02,11.02,11.02h351.47c6.08,0,11.02-4.94,11.02-11.02s-4.94-11.02-11.02-11.02H16.02ZM367.49,32.04H16.02C7.19,32.04,0,24.85,0,16.02S7.19,0,16.02,0h351.47c8.83,0,16.02,7.19,16.02,16.02s-7.19,16.02-16.02,16.02ZM16.02,5c-6.08,0-11.02,4.94-11.02,11.02s4.94,11.02,11.02,11.02h351.47c6.08,0,11.02-4.94,11.02-11.02s-4.94-11.02-11.02-11.02H16.02Z"/>
    </g>
  </g>
</svg>