<?xml version="1.0" encoding="UTF-8"?>
<svg id="Ebene_2" data-name="Ebene 2" xmlns="http://www.w3.org/2000/svg" viewBox="0 0 373.05 373.05">
  <defs>
    <style>
      .cls-1 {
        fill-rule: evenodd;
        stroke-width: 0px;
      }
    </style>
  </defs>
  <g id="instagram_UI_icons_set" data-name="instagram UI icons set">
    <path class="cls-1" d="m182.39,32.57h25.96l32.71,59.94h-71.71l-32.57-59.69c12.68-.25,27.59-.25,45.61-.25Zm-81.53,2.41c-11.31,1.48-18.36,3.68-23.84,6.46-15.31,7.8-27.78,20.26-35.58,35.58-2.03,3.98-3.75,8.82-5.1,15.5h95.91l-31.39-57.53Zm177.28,57.53h58.57c-1.36-6.68-3.07-11.51-5.1-15.5-7.8-15.31-20.26-27.78-35.58-35.58-6.83-3.48-16.16-6.04-33.15-7.43-5.22-.42-10.89-.73-17.16-.95l32.42,59.45ZM33.15,125.09c-.58,14.99-.58,33.42-.58,57.3v8.28c0,32.47.02,54.86,1.44,72.22,1.39,16.99,3.95,26.32,7.43,33.15,7.8,15.31,20.26,27.78,35.58,35.58,6.83,3.48,16.16,6.04,33.15,7.43,17.36,1.42,39.75,1.44,72.22,1.44h8.28c32.47,0,54.86-.02,72.22-1.44,16.99-1.39,26.32-3.95,33.15-7.43,15.31-7.8,27.78-20.26,35.58-35.58,3.48-6.83,6.04-16.16,7.43-33.15,1.42-17.36,1.44-39.75,1.44-72.22v-8.28c0-23.87,0-42.31-.58-57.3H33.15ZM0,182.39c0-63.84,0-95.77,12.43-120.16,10.92-21.43,28.37-38.88,49.8-49.8C86.62,0,118.55,0,182.39,0h8.28c63.84,0,95.77,0,120.16,12.43,21.43,10.92,38.88,28.37,49.8,49.8,12.43,24.38,12.43,56.31,12.43,120.16v8.28c0,63.84,0,95.77-12.43,120.16-10.92,21.43-28.37,38.88-49.8,49.8-24.38,12.43-56.31,12.43-120.16,12.43h-8.28c-63.84,0-95.77,0-120.16-12.43-21.43-10.92-38.88-28.37-49.8-49.8C0,286.44,0,254.51,0,190.66v-8.28Zm134.55-8.72c0-11.75,12.57-19.25,22.91-13.68l86.21,46.38c10.9,5.87,10.9,21.5,0,27.37l-86.21,46.38c-10.34,5.58-22.91-1.93-22.91-13.68v-92.75Z"/>
  </g>
</svg>