<?xml version="1.0" encoding="UTF-8"?>
<svg id="Ebene_2" data-name="Ebene 2" xmlns="http://www.w3.org/2000/svg" viewBox="0 0 380.99 380.99">
  <defs>
    <style>
      .cls-1 {
        fill-rule: evenodd;
        stroke-width: 0px;
      }
    </style>
  </defs>
  <g id="instagram_UI_icons_set" data-name="instagram UI icons set">
    <path class="cls-1" d="m189.82,0h1.36c29.05,0,51.77,0,70.05,1.42,18.6,1.45,33.93,4.44,47.87,11.15,25.93,12.48,46.84,33.4,59.32,59.32,6.71,13.94,9.72,29.27,11.16,47.86,1.42,18.28,1.42,41.01,1.42,70.06v1.35c0,29.05,0,51.77-1.42,70.06-1.44,18.6-4.44,33.93-11.16,47.87-12.48,25.92-33.39,46.83-59.32,59.32-13.94,6.71-29.27,9.71-47.87,11.15-18.28,1.42-41,1.42-70.05,1.42h-1.36c-29.05,0-51.77,0-70.05-1.42-18.6-1.45-33.93-4.44-47.87-11.15-25.93-12.48-46.83-33.4-59.32-59.32-6.71-13.94-9.72-29.27-11.16-47.87-1.42-18.28-1.42-41.01-1.42-70.06v-1.35c0-29.05,0-51.77,1.42-70.06,1.44-18.6,4.44-33.92,11.16-47.86,12.48-25.92,33.39-46.83,59.32-59.32,13.94-6.71,29.27-9.7,47.87-11.15,18.28-1.42,41-1.42,70.05-1.42Zm-67.59,33.08c-16.74,1.3-27.64,3.81-36.56,8.1-19.43,9.36-35.12,25.05-44.48,44.49-4.31,8.91-6.82,19.82-8.11,36.55-1.32,16.91-1.34,38.4-1.34,68.27s.02,51.36,1.34,68.27c1.29,16.73,3.8,27.64,8.11,36.55,9.36,19.44,25.05,35.13,44.48,44.49,8.92,4.29,19.82,6.8,36.56,8.11,16.91,1.32,38.41,1.33,68.27,1.33s51.36-.01,68.27-1.33c16.74-1.3,27.64-3.81,36.56-8.11,19.43-9.36,35.12-25.05,44.48-44.49,4.31-8.91,6.82-19.82,8.11-36.55,1.32-16.91,1.34-38.4,1.34-68.27s-.02-51.36-1.34-68.27c-1.29-16.73-3.8-27.64-8.11-36.55-9.36-19.44-25.05-35.13-44.48-44.49-8.92-4.29-19.82-6.8-36.56-8.1-16.91-1.32-38.41-1.33-68.27-1.33s-51.36.01-68.27,1.33Zm68.27,62.17c8.77,0,15.87,7.11,15.87,15.87v63.5h63.5c8.77,0,15.87,7.11,15.87,15.88s-7.11,15.87-15.87,15.87h-63.5v63.5c0,8.77-7.11,15.87-15.87,15.87s-15.87-7.11-15.87-15.87v-63.5h-63.5c-8.77,0-15.87-7.11-15.87-15.87s7.11-15.88,15.87-15.88h63.5v-63.5c0-8.77,7.11-15.87,15.87-15.87Z"/>
  </g>
</svg>